<svg version="1.1" xmlns="http://www.w3.org/2000/svg" xmlns:xlink="http://www.w3.org/1999/xlink" x="0px" y="0px"
	 width="235.77px" height="161.84px" viewBox="0 0 235.77 161.84" style="enable-background:new 0 0 235.77 161.84;"
	 xml:space="preserve">
<style type="text/css">
	.st0{fill:#FFFFFF;}
	.st1{fill:#E57D28;}
</style>
<defs>
</defs>
<g>
	<path class="st0" d="M202.7,14.12H59.11c-18.24,0-33.07,14.84-33.07,33.07v42.16h10.08V47.19c0-12.68,10.31-22.99,22.99-22.99
		H202.7c12.68,0,22.99,10.31,22.99,22.99v70.99c0,12.68-10.31,22.99-22.99,22.99h-10.5v10.08h10.5c18.24,0,33.07-14.84,33.07-33.07
		V47.19C235.77,28.95,220.94,14.12,202.7,14.12z"/>
	<g>
		<path class="st0" d="M32.6,144.12v8H0v-46.95h32v8H9.13v11.31h19.77v7.4H9.13v12.23H32.6z"/>
		<path class="st0" d="M70.23,117.47c-0.31-0.31-0.87-0.73-1.69-1.26c-0.82-0.53-1.81-1.05-2.97-1.55c-1.17-0.51-2.44-0.94-3.8-1.29
			c-1.37-0.35-2.75-0.53-4.16-0.53c-2.51,0-4.39,0.46-5.62,1.39c-1.24,0.93-1.85,2.23-1.85,3.9c0,0.97,0.23,1.78,0.69,2.41
			c0.46,0.64,1.13,1.2,2.02,1.69c0.88,0.49,1.99,0.93,3.34,1.32c1.34,0.4,2.9,0.82,4.66,1.26c2.29,0.62,4.37,1.28,6.25,1.98
			c1.88,0.71,3.46,1.59,4.76,2.65c1.3,1.06,2.3,2.33,3.01,3.8c0.71,1.48,1.06,3.3,1.06,5.46c0,2.51-0.48,4.66-1.42,6.45
			c-0.95,1.78-2.23,3.23-3.84,4.33c-1.61,1.1-3.46,1.91-5.56,2.41c-2.09,0.51-4.29,0.76-6.58,0.76c-3.53,0-7.01-0.53-10.45-1.59
			c-3.44-1.06-6.52-2.56-9.26-4.5l4.03-7.87c0.4,0.4,1.11,0.91,2.15,1.55s2.26,1.28,3.67,1.92c1.41,0.64,2.97,1.18,4.7,1.62
			c1.72,0.44,3.48,0.66,5.29,0.66c5.03,0,7.54-1.61,7.54-4.83c0-1.01-0.29-1.87-0.86-2.58c-0.57-0.71-1.39-1.32-2.45-1.85
			c-1.06-0.53-2.33-1.01-3.83-1.46c-1.5-0.44-3.17-0.93-5.03-1.45c-2.25-0.62-4.2-1.29-5.85-2.02c-1.65-0.73-3.03-1.59-4.13-2.58
			c-1.1-0.99-1.93-2.14-2.48-3.44c-0.55-1.3-0.83-2.85-0.83-4.66c0-2.38,0.44-4.5,1.32-6.35c0.88-1.85,2.1-3.39,3.67-4.63
			c1.56-1.23,3.38-2.17,5.46-2.81c2.07-0.64,4.3-0.96,6.68-0.96c3.31,0,6.35,0.52,9.13,1.55c2.78,1.04,5.2,2.26,7.27,3.67
			L70.23,117.47z"/>
		<path class="st0" d="M103.09,136.52c2.73,0.48,4.95,1.8,6.65,3.93c1.7,2.14,2.54,4.75,2.54,7.84c0,2.07-0.41,3.94-1.22,5.62
			c-0.82,1.67-1.96,3.1-3.44,4.27c-1.48,1.17-3.27,2.07-5.39,2.71c-2.11,0.64-4.5,0.96-7.14,0.96c-3.35,0-6.32-0.54-8.89-1.62
			c-2.58-1.08-4.73-2.66-6.45-4.73l5.03-6.28c1.14,1.46,2.51,2.58,4.1,3.37c1.59,0.79,3.57,1.19,5.95,1.19
			c2.69,0,4.74-0.53,6.15-1.59c1.41-1.06,2.12-2.69,2.12-4.89c0-2.29-0.82-4.05-2.45-5.29c-1.63-1.23-4.1-1.85-7.4-1.85h-1.85v-6.61
			h2.05c2.73,0,4.85-0.61,6.35-1.82c1.5-1.21,2.25-2.77,2.25-4.66c0-1.81-0.62-3.15-1.85-4.03c-1.24-0.88-2.84-1.32-4.83-1.32
			c-2.03,0-3.85,0.46-5.46,1.39c-1.61,0.93-2.92,2.23-3.93,3.9l-5.55-6.22c0.66-1.01,1.54-1.93,2.65-2.74
			c1.1-0.82,2.35-1.52,3.73-2.12c1.39-0.59,2.9-1.06,4.53-1.39c1.63-0.33,3.3-0.5,5.03-0.5c2.25,0,4.3,0.29,6.15,0.86
			c1.85,0.57,3.45,1.37,4.79,2.38c1.34,1.01,2.38,2.24,3.11,3.67c0.73,1.43,1.09,3.03,1.09,4.79c0,1.32-0.2,2.58-0.59,3.77
			c-0.4,1.19-0.97,2.27-1.72,3.24c-0.75,0.97-1.64,1.78-2.68,2.45C105.46,135.86,104.32,136.3,103.09,136.52z"/>
		<path class="st0" d="M122.13,105.17l12.69,35.51l12.56-35.51h9.59l-18.32,46.95h-7.67l-18.45-46.95H122.13z"/>
		<path class="st0" d="M181.84,125.08v7.14h-6.81v7.47h-8v-7.47h-6.81v-7.14h6.81v-7.47h8v7.47H181.84z"/>
	</g>
	<g>
		<g>
			<rect x="178.55" class="st0" width="10.08" height="36.3"/>
			<rect x="164.43" y="52.43" class="st1" width="38.32" height="38.32"/>
		</g>
		<g>
			<rect x="125.86" class="st0" width="10.08" height="36.3"/>
			<rect x="111.75" y="52.43" class="st1" width="38.32" height="38.32"/>
		</g>
		<g>
			<rect x="73.18" class="st0" width="10.08" height="36.3"/>
			<rect x="59.06" y="52.43" class="st1" width="38.32" height="38.32"/>
		</g>
	</g>
</g>
</svg>
